<svg xmlns="http://www.w3.org/2000/svg" xmlns:xlink="http://www.w3.org/1999/xlink" width="480" zoomAndPan="magnify" viewBox="0 0 360 102.749999" height="137" preserveAspectRatio="xMidYMid meet" version="1.0"><defs><g/><clipPath id="61c1f1816f"><path d="M 270.660156 89.949219 L 348.59375 89.949219 L 348.59375 95.695312 L 270.660156 95.695312 Z M 270.660156 89.949219 " clip-rule="nonzero"/></clipPath><clipPath id="419568da1d"><path d="M 273.535156 89.949219 L 345.71875 89.949219 C 347.304688 89.949219 348.59375 91.234375 348.59375 92.824219 C 348.59375 94.410156 347.304688 95.695312 345.71875 95.695312 L 273.535156 95.695312 C 271.949219 95.695312 270.660156 94.410156 270.660156 92.824219 C 270.660156 91.234375 271.949219 89.949219 273.535156 89.949219 Z M 273.535156 89.949219 " clip-rule="nonzero"/></clipPath></defs><g clip-path="url(#61c1f1816f)"><g clip-path="url(#419568da1d)"><path fill="#2763ff" d="M 270.660156 89.949219 L 348.59375 89.949219 L 348.59375 95.695312 L 270.660156 95.695312 Z M 270.660156 89.949219 " fill-opacity="1" fill-rule="nonzero"/></g></g><g fill="#2763ff" fill-opacity="1"><g transform="translate(4.510366, 79.987009)"><g><path d="M 45.4375 -11.46875 L 20.484375 -11.46875 L 15.84375 0 L -1.1875 0 L 24.875 -59.015625 L 41.3125 -59.015625 L 67.4375 0 L 50.078125 0 Z M 40.546875 -23.765625 L 32.953125 -42.65625 L 25.375 -23.765625 Z M 40.546875 -23.765625 "/></g></g></g><g fill="#2763ff" fill-opacity="1"><g transform="translate(69.075011, 79.987009)"><g><path d="M 22.59375 -44 L 33.46875 -44 L 33.46875 -32.03125 L 23.015625 -32.03125 L 23.015625 0 L 7 0 L 7 -32.03125 L 0.34375 -32.03125 L 0.34375 -44 L 7 -44 L 7 -45.1875 C 7 -50.75 8.671875 -55.160156 12.015625 -58.421875 C 15.359375 -61.679688 20.035156 -63.3125 26.046875 -63.3125 C 28.066406 -63.3125 30.03125 -63.113281 31.9375 -62.71875 C 33.851562 -62.320312 35.429688 -61.734375 36.671875 -60.953125 L 32.703125 -49.65625 C 31.128906 -50.550781 29.53125 -51 27.90625 -51 C 26.21875 -51 24.910156 -50.492188 23.984375 -49.484375 C 23.054688 -48.472656 22.59375 -46.984375 22.59375 -45.015625 Z M 22.59375 -44 "/></g></g></g><g fill="#2763ff" fill-opacity="1"><g transform="translate(101.610143, 79.987009)"><g><path d="M 20.40625 -40.203125 C 22.03125 -42.285156 24.148438 -43.847656 26.765625 -44.890625 C 29.378906 -45.929688 32.367188 -46.453125 35.734375 -46.453125 L 35.734375 -32.03125 C 34.273438 -32.195312 33.066406 -32.28125 32.109375 -32.28125 C 28.679688 -32.28125 26 -31.351562 24.0625 -29.5 C 22.125 -27.644531 21.15625 -24.804688 21.15625 -20.984375 L 21.15625 0 L 5.140625 0 L 5.140625 -45.6875 L 20.40625 -45.6875 Z M 20.40625 -40.203125 "/></g></g></g><g fill="#2763ff" fill-opacity="1"><g transform="translate(137.263937, 79.987009)"><g><path d="M 5.140625 -45.6875 L 21.15625 -45.6875 L 21.15625 0 L 5.140625 0 Z M 13.140625 -50.75 C 10.222656 -50.75 7.863281 -51.5625 6.0625 -53.1875 C 4.269531 -54.820312 3.375 -56.847656 3.375 -59.265625 C 3.375 -61.679688 4.269531 -63.703125 6.0625 -65.328125 C 7.863281 -66.960938 10.222656 -67.78125 13.140625 -67.78125 C 16.066406 -67.78125 18.425781 -67.003906 20.21875 -65.453125 C 22.019531 -63.910156 22.921875 -61.929688 22.921875 -59.515625 C 22.921875 -56.984375 22.019531 -54.890625 20.21875 -53.234375 C 18.425781 -51.578125 16.066406 -50.75 13.140625 -50.75 Z M 13.140625 -50.75 "/></g></g></g><g fill="#ffffff" fill-opacity="1"><g transform="translate(161.969528, 79.987009)"><g><path d="M 28.5 0.765625 C 23.4375 0.765625 18.910156 -0.242188 14.921875 -2.265625 C 10.929688 -4.296875 7.828125 -7.109375 5.609375 -10.703125 C 3.390625 -14.296875 2.28125 -18.367188 2.28125 -22.921875 C 2.28125 -27.472656 3.390625 -31.535156 5.609375 -35.109375 C 7.828125 -38.679688 10.929688 -41.460938 14.921875 -43.453125 C 18.910156 -45.453125 23.4375 -46.453125 28.5 -46.453125 C 33.664062 -46.453125 38.128906 -45.335938 41.890625 -43.109375 C 45.660156 -40.890625 48.332031 -37.816406 49.90625 -33.890625 L 37.515625 -27.5625 C 35.429688 -31.664062 32.394531 -33.71875 28.40625 -33.71875 C 25.539062 -33.71875 23.164062 -32.757812 21.28125 -30.84375 C 19.40625 -28.9375 18.46875 -26.296875 18.46875 -22.921875 C 18.46875 -19.492188 19.40625 -16.8125 21.28125 -14.875 C 23.164062 -12.9375 25.539062 -11.96875 28.40625 -11.96875 C 32.394531 -11.96875 35.429688 -14.019531 37.515625 -18.125 L 49.90625 -11.796875 C 48.332031 -7.867188 45.660156 -4.789062 41.890625 -2.5625 C 38.128906 -0.34375 33.664062 0.765625 28.5 0.765625 Z M 28.5 0.765625 "/></g></g></g><g fill="#ffffff" fill-opacity="1"><g transform="translate(211.109437, 79.987009)"><g><path d="M 28.078125 0.765625 C 23.179688 0.765625 18.765625 -0.242188 14.828125 -2.265625 C 10.898438 -4.296875 7.828125 -7.109375 5.609375 -10.703125 C 3.390625 -14.296875 2.28125 -18.367188 2.28125 -22.921875 C 2.28125 -27.421875 3.390625 -31.46875 5.609375 -35.0625 C 7.828125 -38.664062 10.890625 -41.460938 14.796875 -43.453125 C 18.703125 -45.453125 23.128906 -46.453125 28.078125 -46.453125 C 33.015625 -46.453125 37.453125 -45.453125 41.390625 -43.453125 C 45.328125 -41.460938 48.390625 -38.679688 50.578125 -35.109375 C 52.765625 -31.535156 53.859375 -27.472656 53.859375 -22.921875 C 53.859375 -18.367188 52.765625 -14.296875 50.578125 -10.703125 C 48.390625 -7.109375 45.328125 -4.296875 41.390625 -2.265625 C 37.453125 -0.242188 33.015625 0.765625 28.078125 0.765625 Z M 28.078125 -11.96875 C 30.878906 -11.96875 33.179688 -12.9375 34.984375 -14.875 C 36.785156 -16.8125 37.6875 -19.492188 37.6875 -22.921875 C 37.6875 -26.296875 36.785156 -28.9375 34.984375 -30.84375 C 33.179688 -32.757812 30.878906 -33.71875 28.078125 -33.71875 C 25.265625 -33.71875 22.957031 -32.757812 21.15625 -30.84375 C 19.363281 -28.9375 18.46875 -26.296875 18.46875 -22.921875 C 18.46875 -19.492188 19.363281 -16.8125 21.15625 -14.875 C 22.957031 -12.9375 25.265625 -11.96875 28.078125 -11.96875 Z M 28.078125 -11.96875 "/></g></g></g><g fill="#ffffff" fill-opacity="1"><g transform="translate(265.559495, 79.987009)"><g><path d="M 64.65625 -46.453125 C 70.269531 -46.453125 74.75 -44.765625 78.09375 -41.390625 C 81.4375 -38.015625 83.109375 -32.925781 83.109375 -26.125 L 83.109375 0 L 67.09375 0 L 67.09375 -23.515625 C 67.09375 -26.722656 66.488281 -29.082031 65.28125 -30.59375 C 64.070312 -32.113281 62.375 -32.875 60.1875 -32.875 C 57.769531 -32.875 55.832031 -32.03125 54.375 -30.34375 C 52.914062 -28.65625 52.1875 -26.097656 52.1875 -22.671875 L 52.1875 0 L 36.15625 0 L 36.15625 -23.515625 C 36.15625 -29.753906 33.851562 -32.875 29.25 -32.875 C 26.78125 -32.875 24.8125 -32.03125 23.34375 -30.34375 C 21.882812 -28.65625 21.15625 -26.097656 21.15625 -22.671875 L 21.15625 0 L 5.140625 0 L 5.140625 -45.6875 L 20.40625 -45.6875 L 20.40625 -40.890625 C 22.082031 -42.742188 24.085938 -44.132812 26.421875 -45.0625 C 28.753906 -45.988281 31.300781 -46.453125 34.0625 -46.453125 C 37.257812 -46.453125 40.125 -45.859375 42.65625 -44.671875 C 45.1875 -43.492188 47.238281 -41.695312 48.8125 -39.28125 C 50.601562 -41.582031 52.875 -43.351562 55.625 -44.59375 C 58.382812 -45.832031 61.394531 -46.453125 64.65625 -46.453125 Z M 64.65625 -46.453125 "/></g></g></g></svg>