<svg xmlns="http://www.w3.org/2000/svg" xmlns:xlink="http://www.w3.org/1999/xlink" width="500" zoomAndPan="magnify" viewBox="0 0 375 374.999991" height="500" preserveAspectRatio="xMidYMid meet" version="1.0"><defs><g/><clipPath id="bd8742c470"><path d="M 246.65625 212.75 L 297.503906 212.75 L 297.503906 216.5 L 246.65625 216.5 Z M 246.65625 212.75 " clip-rule="nonzero"/></clipPath><clipPath id="b1640256e9"><path d="M 248.53125 212.75 L 295.628906 212.75 C 296.664062 212.75 297.503906 213.589844 297.503906 214.625 C 297.503906 215.660156 296.664062 216.5 295.628906 216.5 L 248.53125 216.5 C 247.492188 216.5 246.65625 215.660156 246.65625 214.625 C 246.65625 213.589844 247.492188 212.75 248.53125 212.75 Z M 248.53125 212.75 " clip-rule="nonzero"/></clipPath></defs><g clip-path="url(#bd8742c470)"><g clip-path="url(#b1640256e9)"><path fill="#2763ff" d="M 246.65625 212.75 L 297.503906 212.75 L 297.503906 216.5 L 246.65625 216.5 Z M 246.65625 212.75 " fill-opacity="1" fill-rule="nonzero"/></g></g><g fill="#2763ff" fill-opacity="1"><g transform="translate(72.997272, 206.249986)"><g><path d="M 29.640625 -7.484375 L 13.359375 -7.484375 L 10.34375 0 L -0.765625 0 L 16.21875 -38.5 L 26.953125 -38.5 L 44 0 L 32.671875 0 Z M 26.453125 -15.515625 L 21.5 -27.828125 L 16.5625 -15.515625 Z M 26.453125 -15.515625 "/></g></g></g><g fill="#2763ff" fill-opacity="1"><g transform="translate(115.124132, 206.249986)"><g><path d="M 14.734375 -28.703125 L 21.828125 -28.703125 L 21.828125 -20.90625 L 15.015625 -20.90625 L 15.015625 0 L 4.5625 0 L 4.5625 -20.90625 L 0.21875 -20.90625 L 0.21875 -28.703125 L 4.5625 -28.703125 L 4.5625 -29.484375 C 4.5625 -33.109375 5.648438 -35.984375 7.828125 -38.109375 C 10.015625 -40.242188 13.070312 -41.3125 17 -41.3125 C 18.3125 -41.3125 19.59375 -41.179688 20.84375 -40.921875 C 22.09375 -40.660156 23.117188 -40.273438 23.921875 -39.765625 L 21.34375 -32.390625 C 20.3125 -32.984375 19.265625 -33.28125 18.203125 -33.28125 C 17.109375 -33.28125 16.253906 -32.945312 15.640625 -32.28125 C 15.035156 -31.625 14.734375 -30.65625 14.734375 -29.375 Z M 14.734375 -28.703125 "/></g></g></g><g fill="#2763ff" fill-opacity="1"><g transform="translate(136.352515, 206.249986)"><g><path d="M 13.3125 -26.234375 C 14.375 -27.585938 15.753906 -28.601562 17.453125 -29.28125 C 19.160156 -29.96875 21.113281 -30.3125 23.3125 -30.3125 L 23.3125 -20.90625 C 22.363281 -21.007812 21.578125 -21.0625 20.953125 -21.0625 C 18.710938 -21.0625 16.960938 -20.457031 15.703125 -19.25 C 14.441406 -18.039062 13.8125 -16.1875 13.8125 -13.6875 L 13.8125 0 L 3.359375 0 L 3.359375 -29.8125 L 13.3125 -29.8125 Z M 13.3125 -26.234375 "/></g></g></g><g fill="#2763ff" fill-opacity="1"><g transform="translate(159.615749, 206.249986)"><g><path d="M 3.359375 -29.8125 L 13.8125 -29.8125 L 13.8125 0 L 3.359375 0 Z M 8.578125 -33.109375 C 6.671875 -33.109375 5.128906 -33.640625 3.953125 -34.703125 C 2.785156 -35.765625 2.203125 -37.085938 2.203125 -38.671875 C 2.203125 -40.242188 2.785156 -41.5625 3.953125 -42.625 C 5.128906 -43.6875 6.671875 -44.21875 8.578125 -44.21875 C 10.484375 -44.21875 12.019531 -43.710938 13.1875 -42.703125 C 14.363281 -41.691406 14.953125 -40.398438 14.953125 -38.828125 C 14.953125 -37.179688 14.363281 -35.816406 13.1875 -34.734375 C 12.019531 -33.648438 10.484375 -33.109375 8.578125 -33.109375 Z M 8.578125 -33.109375 "/></g></g></g><g fill="#ffffff" fill-opacity="1"><g transform="translate(175.735546, 206.249986)"><g><path d="M 18.59375 0.5 C 15.289062 0.5 12.335938 -0.160156 9.734375 -1.484375 C 7.128906 -2.804688 5.101562 -4.640625 3.65625 -6.984375 C 2.207031 -9.328125 1.484375 -11.984375 1.484375 -14.953125 C 1.484375 -17.929688 2.207031 -20.582031 3.65625 -22.90625 C 5.101562 -25.238281 7.128906 -27.054688 9.734375 -28.359375 C 12.335938 -29.660156 15.289062 -30.3125 18.59375 -30.3125 C 21.96875 -30.3125 24.878906 -29.582031 27.328125 -28.125 C 29.785156 -26.675781 31.53125 -24.671875 32.5625 -22.109375 L 24.46875 -17.984375 C 23.113281 -20.660156 21.132812 -22 18.53125 -22 C 16.664062 -22 15.117188 -21.375 13.890625 -20.125 C 12.660156 -18.882812 12.046875 -17.160156 12.046875 -14.953125 C 12.046875 -12.722656 12.660156 -10.972656 13.890625 -9.703125 C 15.117188 -8.441406 16.664062 -7.8125 18.53125 -7.8125 C 21.132812 -7.8125 23.113281 -9.148438 24.46875 -11.828125 L 32.5625 -7.703125 C 31.53125 -5.128906 29.785156 -3.117188 27.328125 -1.671875 C 24.878906 -0.222656 21.96875 0.5 18.59375 0.5 Z M 18.59375 0.5 "/></g></g></g><g fill="#ffffff" fill-opacity="1"><g transform="translate(207.798142, 206.249986)"><g><path d="M 18.3125 0.5 C 15.125 0.5 12.242188 -0.160156 9.671875 -1.484375 C 7.109375 -2.804688 5.101562 -4.640625 3.65625 -6.984375 C 2.207031 -9.328125 1.484375 -11.984375 1.484375 -14.953125 C 1.484375 -17.890625 2.207031 -20.53125 3.65625 -22.875 C 5.101562 -25.226562 7.097656 -27.054688 9.640625 -28.359375 C 12.191406 -29.660156 15.082031 -30.3125 18.3125 -30.3125 C 21.539062 -30.3125 24.4375 -29.660156 27 -28.359375 C 29.570312 -27.054688 31.570312 -25.238281 33 -22.90625 C 34.425781 -20.582031 35.140625 -17.929688 35.140625 -14.953125 C 35.140625 -11.984375 34.425781 -9.328125 33 -6.984375 C 31.570312 -4.640625 29.570312 -2.804688 27 -1.484375 C 24.4375 -0.160156 21.539062 0.5 18.3125 0.5 Z M 18.3125 -7.8125 C 20.144531 -7.8125 21.644531 -8.441406 22.8125 -9.703125 C 23.988281 -10.972656 24.578125 -12.722656 24.578125 -14.953125 C 24.578125 -17.160156 23.988281 -18.882812 22.8125 -20.125 C 21.644531 -21.375 20.144531 -22 18.3125 -22 C 16.476562 -22 14.972656 -21.375 13.796875 -20.125 C 12.628906 -18.882812 12.046875 -17.160156 12.046875 -14.953125 C 12.046875 -12.722656 12.628906 -10.972656 13.796875 -9.703125 C 14.972656 -8.441406 16.476562 -7.8125 18.3125 -7.8125 Z M 18.3125 -7.8125 "/></g></g></g><g fill="#ffffff" fill-opacity="1"><g transform="translate(243.325481, 206.249986)"><g><path d="M 42.1875 -30.3125 C 45.851562 -30.3125 48.773438 -29.207031 50.953125 -27 C 53.140625 -24.800781 54.234375 -21.484375 54.234375 -17.046875 L 54.234375 0 L 43.78125 0 L 43.78125 -15.34375 C 43.78125 -17.4375 43.382812 -18.976562 42.59375 -19.96875 C 41.8125 -20.957031 40.703125 -21.453125 39.265625 -21.453125 C 37.691406 -21.453125 36.425781 -20.898438 35.46875 -19.796875 C 34.519531 -18.703125 34.046875 -17.035156 34.046875 -14.796875 L 34.046875 0 L 23.59375 0 L 23.59375 -15.34375 C 23.59375 -19.414062 22.085938 -21.453125 19.078125 -21.453125 C 17.472656 -21.453125 16.191406 -20.898438 15.234375 -19.796875 C 14.285156 -18.703125 13.8125 -17.035156 13.8125 -14.796875 L 13.8125 0 L 3.359375 0 L 3.359375 -29.8125 L 13.3125 -29.8125 L 13.3125 -26.671875 C 14.40625 -27.878906 15.710938 -28.785156 17.234375 -29.390625 C 18.765625 -30.003906 20.425781 -30.3125 22.21875 -30.3125 C 24.3125 -30.3125 26.179688 -29.925781 27.828125 -29.15625 C 29.484375 -28.382812 30.820312 -27.207031 31.84375 -25.625 C 33.019531 -27.132812 34.503906 -28.289062 36.296875 -29.09375 C 38.097656 -29.90625 40.0625 -30.3125 42.1875 -30.3125 Z M 42.1875 -30.3125 "/></g></g></g></svg>